<svg width="33" height="28" viewBox="0 0 33 28" fill="none" xmlns="http://www.w3.org/2000/svg">
<path d="M16.4917 14.8621C15.958 14.8621 15.5254 15.271 15.5254 15.7755V22.6498C15.5254 23.1542 15.958 23.5632 16.4917 23.5632C17.0253 23.5632 17.458 23.1542 17.458 22.6498V15.7755C17.458 15.271 17.0253 14.8621 16.4917 14.8621Z" fill="#151515" fill-opacity="0.75"/>
<path d="M11.3616 15.7003C11.3176 15.1976 10.8509 14.8237 10.3189 14.8652C9.78707 14.9068 9.39153 15.348 9.43546 15.8508L10.0364 22.725C10.0804 23.2279 10.5472 23.6017 11.0791 23.5602C11.6109 23.5186 12.0065 23.0773 11.9625 22.5746L11.3616 15.7003Z" fill="#151515" fill-opacity="0.75"/>
<path d="M22.664 14.8652C22.132 14.8235 21.6654 15.1976 21.6214 15.7003L21.0204 22.5746C20.9765 23.0774 21.372 23.5186 21.9039 23.5602C21.9309 23.5623 21.9579 23.5634 21.9845 23.5634C22.4822 23.5634 22.9048 23.2023 22.9465 22.7251L23.5475 15.8508C23.5915 15.3481 23.1959 14.9068 22.664 14.8652Z" fill="#151515" fill-opacity="0.75"/>
<path d="M32.0169 10.6702C30.1056 10.6702 30.3551 10.6702 29.2867 10.6702L24.5582 0.544542C24.4037 0.213505 24.057 0 23.6742 0H21.3612C20.8276 0 20.3949 0.408985 20.3949 0.913458C20.3949 1.41793 20.8276 1.82692 21.3612 1.82692H23.0445L27.1742 10.6703H5.80915L9.93874 1.82692H11.622C12.1557 1.82692 12.5883 1.41793 12.5883 0.913458C12.5883 0.408985 12.1557 0 11.622 0H9.30903C8.92631 0 8.57961 0.213566 8.425 0.544542L3.69656 10.6702C2.48572 10.6702 3.8989 10.6702 0.966302 10.6702C0.432646 10.6702 0 11.0792 0 11.5837C0 12.0881 0.432646 12.4971 0.966302 12.4971H1.97931L4.37458 26.9827C4.44808 27.4274 4.85322 27.7552 5.32929 27.7552H27.6539C28.13 27.7552 28.5351 27.4274 28.6086 26.9827L31.0039 12.4971H32.0169C32.5505 12.4971 32.9832 12.0881 32.9832 11.5837C32.9832 11.0792 32.5505 10.6702 32.0169 10.6702ZM26.8269 25.9282H6.15631L3.93543 12.4971H29.0478L26.8269 25.9282Z" fill="#151515" fill-opacity="0.75"/>
</svg>
